<?xml version="1.0" encoding="UTF-8"?><svg id="uuid-dc09dbeb-6f07-4f48-99f1-f1c6f89db670" xmlns="http://www.w3.org/2000/svg" viewBox="0 0 415.04 792.46"><defs><style>.uuid-cfc9229f-c477-45aa-8650-234aa71d64a6{fill:#760000;}.uuid-bc80501e-dc50-494d-b33a-6d3210c8ca46{fill:#780404;}</style></defs><g id="uuid-035ae730-fa68-4672-b63b-81b3065aac72"><path class="uuid-cfc9229f-c477-45aa-8650-234aa71d64a6" d="m232.88,775.07l-4.9-1.84c-.61.94-1.21,1.88-1.82,2.81-.39,3.07-1.16,6.15-1.08,9.21.15,5.89-2.84,7.51-8.04,6.76-2.7-.39-5.39-.79-8.08-1.19-.24-.25-.49-.51-.73-.76-.09-.64-.19-1.27-.28-1.91-.26-.37-.53-.73-.79-1.1-1.26-7.71-2.52-15.43-3.76-23.15-.2-1.28-.26-2.58-.39-3.88-.04-3.67-.08-7.35-.12-11.02,1.32-3.14,2.65-6.28,3.97-9.43.77-1.84,1.53-3.69,2.3-5.54.27-.67.53-1.34.8-2.01.34-4.73.61-9.46,1.05-14.18.26-2.75-.65-3.88-3.54-3.8-12.49.36-24.99.56-37.48.82-4.4-3.69-9.24-1.66-13.98-1.08-.35.03-.7.05-1.04.08-.36-.27-.72-.53-1.08-.8-6.52-2.04-7.24-3.33-6.72-12.05.26-.36.53-.72.79-1.08,1.1-4.64,2.2-9.29,3.3-13.93.24-.34.47-.69.71-1.03,2.1-7.99,4.2-15.98,6.3-23.97.23-.36.45-.72.68-1.09.08-.97.16-1.93.24-2.9.27-.32.54-.63.81-.95.4-1.69.8-3.37,1.2-5.06l.73-1.14c1.75-6.17,3.51-12.33,5.24-18.5,1.22-4.34,2.38-8.69,3.6-13.03,4.54-16.01,8.98-32.05,13.67-48.02,3.08-10.49,6.51-20.88,9.79-31.31.24-.36.48-.73.71-1.09.07-.63.15-1.27.22-1.9.26-.36.53-.72.79-1.07.08-.64.17-1.29.25-1.93.25-.36.5-.71.75-1.07,1.74-5.98,3.48-11.95,5.21-17.93.27-.34.54-.68.81-1.02,4.43-15,8.86-30,13.3-45,.23-.35.46-.71.68-1.06,1.4-8.64,2.81-17.27,4.21-25.91.28-.67.56-1.33.83-2,.72-4.67,1.44-9.35,2.16-14.02.27-.35.54-.69.81-1.04.39-2.31.79-4.63,1.18-6.94.27-.67.54-1.34.81-2.01,1.06-4.66,2.13-9.33,3.19-13.99.29-.66.57-1.33.86-1.99,1.71-7.34,3.43-14.68,5.14-22.03.26-.37.52-.74.78-1.1.11-.97.21-1.94.32-2.91.23-.35.46-.71.7-1.06,1.34-6.33,2.88-12.62,3.98-18.99,1.83-10.55,3.37-21.16,5.07-31.73.28-1.74.77-3.46,1.16-5.18.36-1.33.71-2.65,1.07-3.98-.03-.34-.05-.68-.08-1.03.27-.67.53-1.34.8-2.01.07-1.33.13-2.66.2-3.99,2.63-1.31,2.65-2.64.04-4.01.91-9.32,1.82-18.65,2.74-27.97-.26-1.01-.52-2.02-.77-3.02-.03-1.34-.06-2.69-.09-4.03-.3-.66-.59-1.31-.89-1.97-.02-1.01-.04-2.03-.07-3.04-.27-.65-.54-1.31-.82-1.96-3.68-7.43-6.7-15.29-11.18-22.21-9.21-14.24-19.13-28.02-28.91-41.87-2.06-2.92-4.8-5.37-7.23-8.04-.28-.29-.55-.57-.83-.86-9.39-10.8-19.28-21.08-31.02-29.41-.89-.63-1.42-1.77-2.12-2.67-.73-1.84-.85-4.56-4.06-2.82-8.67-8.37-17.33-16.74-26-25.11-3.93-3.79-7.92-7.52-11.81-11.35-11.74-11.59-23.45-23.22-35.17-34.83-.36-.26-.71-.53-1.07-.79-4.98-4.42-9.96-8.83-14.93-13.25-.35-.25-.69-.51-1.04-.76-4.3-3.72-8.6-7.45-12.91-11.17-.27-.28-.55-.56-.82-.84-4.41-3.74-8.82-7.47-13.23-11.21-.36-.26-.71-.52-1.07-.78-6.52-5.28-13.06-10.52-21.93-11.21-.37-.26-.75-.52-1.12-.78-7.22-.79-14.1-2.52-19.88-7.25-.26-.26-.53-.53-.79-.79C-1.97,14.36-.94,9.02,6.87,2c.36-.24.72-.47,1.09-.71,15.31-4.4,26.5,3.1,36.94,12.77.35.26.71.51,1.06.77,9.64,8.08,19.27,16.16,28.91,24.24.36.25.73.51,1.09.76,8.97,6.75,17.93,13.49,26.9,20.24.37.24.73.48,1.1.72,1.3.76,2.6,1.52,3.9,2.28.37.23.73.46,1.1.69,5.31,3.76,10.63,7.53,15.94,11.29.35.24.7.49,1.06.73.98.76,1.96,1.52,2.93,2.27.36.26.72.52,1.07.78,11.63,9.41,23.26,18.82,34.89,28.23.37.26.74.51,1.11.77,1.97,1.41,3.94,2.82,5.9,4.22.37.26.73.51,1.1.77l26.87,18.25,2.15,1.74c8.85,4.8,17.59,9.82,26.6,14.29,2.74,1.36,6.22,1.25,9.36,1.82,1.01-.25,2.03-.49,3.04-.74,4.16.59,5.89-2.63,8.06-5.15.41-.95.82-1.89,1.23-2.84,3.56-8.34,1.36-14.52-6.55-19.11-2.57-1.49-4.7-4.03-6.49-6.48-2.15-2.94-4.57-5.92-2.55-10.27.61-1.32-.86-3.61-1.36-5.46-.79-2.95-1.57-5.91-2.35-8.86-.27-.67-.55-1.34-.82-2.01-.09-1.32-.18-2.64-.27-3.96-.24-.68-.49-1.36-.73-2.04-.64-7.63.17-14.9,3.62-22,4.48-9.18,12.52-13.59,21.39-16.52,9.96-3.3,20.42-3.9,30.59-1,12.84,3.65,20.43,12.61,23.43,25.54.25.37.5.74.76,1.11.74,3.29,1.48,6.58,2.22,9.88.25,1.34.5,2.69.75,4.03,1.08,5.66,2.16,11.31,3.24,16.97,0,1.67,0,3.34,0,5.01-.71,5.01-1.41,10.01-2.12,15.02-.29,1.66-.58,3.32-.87,4.98,0,.66,0,1.33-.01,1.99.31.86.62,1.71.93,2.57.7-.49,1.41-.98,2.11-1.47,7.4-8.34,15.01-16.51,22.1-25.11,2.6-3.15,3.99-7.31,5.93-11.01.24-.37.48-.73.72-1.1,2.63-13.01.01-25.46-3.99-37.76l-.73-1.09c-5.13-12.26-10.27-24.45-19.13-34.72-2.41-2.79-3.46-6.77-5.13-10.21-.27-.36-.53-.72-.8-1.08.38-1.35.76-2.69,1.14-4.04.23-.25.45-.5.68-.75,2.66-.38,5.33-.77,7.99-1.15,1.34.26,2.68.51,4.02.77,1.3.07,2.6.14,3.9.2.36.27.73.53,1.09.8.27.17.57.24.88.21.37.23.74.47,1.11.7,7.71,4.32,11.67,11.74,15.32,19.22,2.68,5.5,4.62,11.35,6.9,17.05.25.38.5.76.75,1.14.08.62.15,1.23.23,1.85.26.37.53.74.79,1.11.44,1.97.88,3.94,1.32,5.91.23.35.46.7.7,1.05,3.46,13.61,7.01,27.19,10.35,40.83,1.24,5.05.74,9.39-2.65,14.26-11.62,16.73-22.4,34.05-33.4,51.2-.83,1.29-.9,3.06-1.33,4.61-.26,1.01-.52,2.01-.79,3.02,0,1.66,0,3.33,0,4.99.28,1,.56,2,.84,3,4.28,9.05,8.55,18.1,12.83,27.15.77,1.63,1.56,3.25,2.34,4.87.27.35.54.7.8,1.05,1.07,2.98,2.13,5.97,3.2,8.95.27.34.54.68.81,1.01.4,2,.79,3.99,1.19,5.99.27.34.54.69.81,1.03,0,7.65,0,15.29,0,22.94-.27.34-.54.67-.82,1.01,0,.67,0,1.34,0,2.01.26,1.67.52,3.35.77,5.02.43,5.67.87,11.33,1.3,17-.02.32-.03.64-.05.96,0,2.34-.01,4.68-.02,7.01.25.68.5,1.36.75,2.03.08,2.99.17,5.98.25,8.97.26,1.34.51,2.68.77,4.02.41,5.99.82,11.98,1.23,17.98.25,1.01.5,2.02.75,3.03,1.08,12.32,2.17,24.64,3.25,36.97.24.68.47,1.37.71,2.05l.29,6.95c.25,1.01.5,2.02.75,3.04.42,4.32.84,8.64,1.26,12.96.25,1.01.5,2.02.75,3.03.44,3.33.87,6.66,1.31,10,0,.65-.01,1.3-.02,1.95.65,8.01,1.3,16.01,1.95,24.02.22.69.45,1.38.67,2.06.11,3.31.23,6.62.34,9.94.26.67.51,1.35.77,2.02.08,2.33.16,4.65.23,6.98.24.68.48,1.36.71,2.04l.27,4.96c.25,1.34.51,2.69.76,4.03.75,6.66,1.5,13.31,2.25,19.97.25.68.5,1.35.75,2.03.75,4.99,1.5,9.98,2.25,14.97.26,1.01.53,2.01.79,3.02.07,1,.15,2,.22,3,.26.36.52.72.78,1.08.43,3.31.86,6.62,1.29,9.93-.2.31-.21.63-.05.96.65,9.34,1.31,18.68,1.96,28.01.25.68.5,1.35.75,2.03.08,2.32.17,4.65.25,6.97.25,1.01.49,2.03.74,3.04.09,2.99.18,5.97.27,8.96.24.68.48,1.36.73,2.04.09,2.32.18,4.64.27,6.96.24.68.48,1.36.73,2.04l.27,8.96.78,2.02c.74,7.99,1.48,15.99,2.23,23.98.23.68.46,1.37.7,2.05.1,1.98.2,3.97.3,5.95.26,1.01.51,2.02.77,3.02.41,3.99.82,7.98,1.23,11.98.25,1.01.49,2.02.74,3.04,1.35,9.33,2.72,18.67,4.04,28.01.19,1.31.16,2.65.23,3.97.26.37.53.73.79,1.1.07,1.29.14,2.59.21,3.88.26.67.51,1.35.77,2.02,1.76,7.67,3.52,15.33,5.29,23,.25.36.49.71.74,1.07.09.64.17,1.29.26,1.93.24.37.48.74.72,1.11,1.07,3.96,2.14,7.92,3.21,11.88l.8,1.07c.08.65.16,1.29.24,1.94.24.38.48.76.72,1.15.08.94.15,1.89.23,2.83.26.67.51,1.35.77,2.02.77,5.21-2.14,7.1-6.73,7.3-5.4.23-10.8.34-16.2.49-2.76-3.28-5.89-1.97-9.03-.75-13.98-.03-27.98-.54-41.93.12-7.51.35-14.88,3.04-22.4,4.06-4.53.61-9.23.05-13.85,0-.38-.14-.63-.02-.76.37-.68.07-1.36.14-2.04.21-.69-.22-1.38-.45-2.06-.67-2.62-.05-5.26.09-7.85-.2-3.92-.44-5.71,1.37-6.13,5.03-.26.67-.52,1.35-.78,2.02,0,4.67,0,9.34,0,14.01.27.35.53.7.8,1.06,3.2,7.85,6.59,15.53,15.89,17.98.37.26.75.52,1.12.79,7.09,2.03,14.23,3.91,21.25,6.17,2.12.68,3.91,2.41,5.85,3.67-1.28,1.53-2.29,3.55-3.91,4.48-2.87,1.64-6.19,2.46-9.17,3.92-1.2.59-2.23,1.83-2.94,3.02-1.19,1.96-2.07,4.11-3.08,6.17-.35.24-.71.47-1.06.71-6.46.79-12.9,1.8-19.38,2.3-4.45.35-8.96,0-13.44-.04-1.71-.05-3.42-.1-5.13-.15-5.34-.72-11.11,1.6-16-2.3-.35-.25-.7-.5-1.04-.75-.33-.06-.65-.15-.96-.26l-1.07-.72c-2.31-1.4-4.61-2.81-6.92-4.21-.35-.27-.7-.54-1.04-.8-.32-.09-.64-.18-.97-.27-.36-.24-.71-.48-1.07-.72-2.98-2.09-5.95-4.18-8.93-6.27-.36-.24-.71-.49-1.07-.73Zm79.49-643.45c-.3-.09-.49-.15-.67-.21.04.13.07.25.11.38.14-.04.29-.09.57-.17Z"/><path class="uuid-bc80501e-dc50-494d-b33a-6d3210c8ca46" d="m156,713.79c4.73-.58,9.57-2.62,13.98,1.08-4.66-.36-9.32-.72-13.98-1.08Z"/><path class="uuid-bc80501e-dc50-494d-b33a-6d3210c8ca46" d="m202.88,749c.04,3.67.08,7.35.12,11.02-.04-3.67-.08-7.35-.12-11.02Z"/><path class="uuid-bc80501e-dc50-494d-b33a-6d3210c8ca46" d="m382.95,717.09c3.13-1.22,6.27-2.52,9.03.75-3.01-.25-6.02-.5-9.03-.75Z"/><path class="uuid-bc80501e-dc50-494d-b33a-6d3210c8ca46" d="m271.95,792.11c1.71.05,3.42.1,5.13.15-1.71-.05-3.42-.1-5.13-.15Z"/><path class="uuid-bc80501e-dc50-494d-b33a-6d3210c8ca46" d="m164.94,151.14c3.22-1.74,3.34.98,4.06,2.82-1.35-.94-2.71-1.88-4.06-2.82Z"/><path class="uuid-bc80501e-dc50-494d-b33a-6d3210c8ca46" d="m250.19,301.03c2.61,1.36,2.59,2.7-.04,4.01.01-1.34.03-2.67.04-4.01Z"/><path class="uuid-bc80501e-dc50-494d-b33a-6d3210c8ca46" d="m249.22,312.06c-.36,1.33-.71,2.65-1.07,3.98.36-1.33.71-2.65,1.07-3.98Z"/><path class="uuid-bc80501e-dc50-494d-b33a-6d3210c8ca46" d="m252.15,270.03l.77,3.02-.77-3.02Z"/><path class="uuid-bc80501e-dc50-494d-b33a-6d3210c8ca46" d="m240.98,148.2c-1.01.25-2.03.49-3.04.74,1.01-.25,2.03-.49,3.04-.74Z"/><path class="uuid-bc80501e-dc50-494d-b33a-6d3210c8ca46" d="m250.26,140.22c-.41.95-.82,1.89-1.23,2.84.41-.95.82-1.89,1.23-2.84Z"/><path class="uuid-bc80501e-dc50-494d-b33a-6d3210c8ca46" d="m226.95,415.02c-.27.67-.54,1.34-.81,2.01.27-.67.54-1.34.81-2.01Z"/><path class="uuid-bc80501e-dc50-494d-b33a-6d3210c8ca46" d="m209.95,732.03c-.27.67-.53,1.34-.8,2.01.27-.67.53-1.34.8-2.01Z"/><path class="uuid-bc80501e-dc50-494d-b33a-6d3210c8ca46" d="m231,399.04c-.29.66-.57,1.33-.86,1.99.29-.66.57-1.33.86-1.99Z"/><path class="uuid-bc80501e-dc50-494d-b33a-6d3210c8ca46" d="m299.91,721.19c.69.22,1.38.45,2.06.67-.69-.22-1.38-.45-2.06-.67Z"/><path class="uuid-bc80501e-dc50-494d-b33a-6d3210c8ca46" d="m230.14,88.03c.27.67.55,1.34.82,2.01-.27-.67-.55-1.34-.82-2.01Z"/><path class="uuid-bc80501e-dc50-494d-b33a-6d3210c8ca46" d="m229.15,82.03c.24.68.49,1.36.73,2.04-.24-.68-.49-1.36-.73-2.04Z"/><path class="uuid-bc80501e-dc50-494d-b33a-6d3210c8ca46" d="m250.28,259.03c.27.65.54,1.31.82,1.96-.27-.65-.54-1.31-.82-1.96Z"/><path class="uuid-bc80501e-dc50-494d-b33a-6d3210c8ca46" d="m251.17,264.03c.3.66.59,1.31.89,1.97-.3-.66-.59-1.31-.89-1.97Z"/><path class="uuid-bc80501e-dc50-494d-b33a-6d3210c8ca46" d="m221.99,439.04c-.28.67-.56,1.33-.83,2,.28-.67.56-1.33.83-2Z"/><path class="uuid-bc80501e-dc50-494d-b33a-6d3210c8ca46" d="m249.94,309.02c-.27.67-.53,1.34-.8,2.01.27-.67.53-1.34.8-2.01Z"/><path class="uuid-bc80501e-dc50-494d-b33a-6d3210c8ca46" d="m151.95,684.97c-.24.34-.47.69-.71,1.03.24-.34.47-.69.71-1.03Z"/><path class="uuid-bc80501e-dc50-494d-b33a-6d3210c8ca46" d="m339.21,52.05c.24.36.49.73.73,1.09-.24-.36-.49-.73-.73-1.09Z"/><path class="uuid-bc80501e-dc50-494d-b33a-6d3210c8ca46" d="m61.19,53.05c.27.28.55.56.82.84-.27-.28-.55-.56-.82-.84Z"/><path class="uuid-bc80501e-dc50-494d-b33a-6d3210c8ca46" d="m74.91,65.05c.35.25.69.51,1.04.76-.35-.25-.69-.51-1.04-.76Z"/><path class="uuid-bc80501e-dc50-494d-b33a-6d3210c8ca46" d="m224.96,423.98c-.27.35-.54.69-.81,1.04.27-.35.54-.69.81-1.04Z"/><path class="uuid-bc80501e-dc50-494d-b33a-6d3210c8ca46" d="m216.94,466.94c-.23.35-.46.71-.68,1.06.23-.35.46-.71.68-1.06Z"/><path class="uuid-bc80501e-dc50-494d-b33a-6d3210c8ca46" d="m202.96,513l-.81,1.02.81-1.02Z"/><path class="uuid-bc80501e-dc50-494d-b33a-6d3210c8ca46" d="m196.94,531.94c-.25.36-.5.71-.75,1.07.25-.36.5-.71.75-1.07Z"/><path class="uuid-bc80501e-dc50-494d-b33a-6d3210c8ca46" d="m195.94,534.94c-.26.36-.53.72-.79,1.07.26-.36.53-.72.79-1.07Z"/><path class="uuid-bc80501e-dc50-494d-b33a-6d3210c8ca46" d="m194.93,537.92c-.24.36-.48.73-.71,1.09.24-.36.48-.73.71-1.09Z"/><path class="uuid-bc80501e-dc50-494d-b33a-6d3210c8ca46" d="m46.89,41.06l1.07.78c-.36-.26-.71-.52-1.07-.78Z"/><path class="uuid-bc80501e-dc50-494d-b33a-6d3210c8ca46" d="m202.14,186.04c.28.29.55.57.83.86-.28-.29-.55-.57-.83-.86Z"/><path class="uuid-bc80501e-dc50-494d-b33a-6d3210c8ca46" d="m161.91,649.87c-.24.38-.49.76-.73,1.14.24-.38.49-.76.73-1.14Z"/><path class="uuid-bc80501e-dc50-494d-b33a-6d3210c8ca46" d="m159.98,656.07c-.27.32-.54.63-.81.95.27-.32.54-.63.81-.95Z"/><path class="uuid-bc80501e-dc50-494d-b33a-6d3210c8ca46" d="m158.93,659.92c-.23.36-.45.72-.68,1.09.23-.36.45-.72.68-1.09Z"/><path class="uuid-bc80501e-dc50-494d-b33a-6d3210c8ca46" d="m90.89,79.06c.36.26.71.53,1.07.79-.36-.26-.71-.53-1.07-.79Z"/><path class="uuid-bc80501e-dc50-494d-b33a-6d3210c8ca46" d="m236.93,375.91c-.26.37-.52.74-.78,1.1.26-.37.52-.74.78-1.1Z"/><path class="uuid-bc80501e-dc50-494d-b33a-6d3210c8ca46" d="m147.94,699.94c-.26.36-.53.72-.79,1.08.26-.36.53-.72.79-1.08Z"/><path class="uuid-bc80501e-dc50-494d-b33a-6d3210c8ca46" d="m343.93,90.91c-.24.37-.48.73-.72,1.1.24-.37.48-.73.72-1.1Z"/><path class="uuid-bc80501e-dc50-494d-b33a-6d3210c8ca46" d="m153.87,713.07c.36.27.72.53,1.08.8-.36-.27-.72-.53-1.08-.8Z"/><path class="uuid-bc80501e-dc50-494d-b33a-6d3210c8ca46" d="m315.96,1.25c-.23.25-.45.5-.68.75.23-.25.45-.5.68-.75Z"/><path class="uuid-bc80501e-dc50-494d-b33a-6d3210c8ca46" d="m304.02,721.66c.13-.39.38-.52.76-.37-.17.29-.43.41-.76.37Z"/><path class="uuid-bc80501e-dc50-494d-b33a-6d3210c8ca46" d="m314.15,6.04c.27.36.53.72.8,1.08-.27-.36-.53-.72-.8-1.08Z"/><path class="uuid-bc80501e-dc50-494d-b33a-6d3210c8ca46" d="m7.95,1.29c-.36.24-.72.47-1.09.71.36-.24.72-.47,1.09-.71Z"/><path class="uuid-bc80501e-dc50-494d-b33a-6d3210c8ca46" d="m23.84,29.08c.37.26.75.52,1.12.78-.37-.26-.75-.52-1.12-.78Z"/><path class="uuid-bc80501e-dc50-494d-b33a-6d3210c8ca46" d="m3.16,21.05c.26.26.53.53.79.79-.26-.26-.53-.53-.79-.79Z"/><path class="uuid-bc80501e-dc50-494d-b33a-6d3210c8ca46" d="m232.88,775.07c.36.24.71.49,1.07.73-.36-.24-.71-.49-1.07-.73Z"/><path class="uuid-bc80501e-dc50-494d-b33a-6d3210c8ca46" d="m242.88,782.07c.36.24.71.48,1.07.72-.36-.24-.71-.48-1.07-.72Z"/><path class="uuid-bc80501e-dc50-494d-b33a-6d3210c8ca46" d="m244.91,783.05c.35.27.7.54,1.04.8-.35-.27-.7-.54-1.04-.8Z"/><path class="uuid-bc80501e-dc50-494d-b33a-6d3210c8ca46" d="m207.15,787.04c.26.37.53.73.79,1.1-.26-.37-.53-.73-.79-1.1Z"/><path class="uuid-bc80501e-dc50-494d-b33a-6d3210c8ca46" d="m252.87,788.07c.36.24.72.48,1.07.72-.36-.24-.72-.48-1.07-.72Z"/><path class="uuid-bc80501e-dc50-494d-b33a-6d3210c8ca46" d="m254.91,789.06c.35.25.7.5,1.04.75-.35-.25-.7-.5-1.04-.75Z"/><path class="uuid-bc80501e-dc50-494d-b33a-6d3210c8ca46" d="m208.22,790.05c.24.25.49.51.73.76-.24-.25-.49-.51-.73-.76Z"/><path class="uuid-bc80501e-dc50-494d-b33a-6d3210c8ca46" d="m237.94,371.95l-.7,1.06.7-1.06Z"/><path class="uuid-bc80501e-dc50-494d-b33a-6d3210c8ca46" d="m312.37,131.61c-.28.08-.42.12-.57.17-.04-.13-.07-.25-.11-.38.19.06.38.12.67.21Z"/></g></svg>