<?xml version="1.0" encoding="UTF-8"?><svg id="uuid-91ed98ee-f867-42e5-8d77-9da0c2f670a2" xmlns="http://www.w3.org/2000/svg" viewBox="0 0 427.59 635.13"><defs><style>.uuid-8f10cb3d-3971-4951-8255-4f20f84c18ec{fill:#fce4e4;}</style></defs><g id="uuid-102fdc6e-baf6-4b12-944d-31c7fbd4530c"><g id="uuid-7c3f9305-ec48-4149-8770-f513c1ad5979"><path class="uuid-8f10cb3d-3971-4951-8255-4f20f84c18ec" d="m106.6,155.97c3.66.12,7.57-.64,10.99-2.03,4.34-2.24,8.72-3.96,13.01-6,6.39-3.22,12.84-6.34,18.99-10,10.02-5.08,19.2-12.24,31-14.99,10.65.27,21.52,1.14,31.98,1.99,9.3-11.34,7.14-22.63-.99-33.97h0c-1.2-.81-.83-2.18-1.99-3.02-3.45-8.65-2.81-18.58-2.99-28,13.39-22.06,22.91-24.89,47.04-14.05,1.32,1.02,2.65,2.03,3.97,3.04,14.07,18.75,5.97,43.86-4.02,62.44h0c-1.25,7.71,2.63,9.6,8.87,12.55,6.51,3.32,14.49,1.71,21.17-1,3.28-1.26,6.66-1.95,9.98-3,9.48-3.06,19.08-5.6,26.96-11.97.33-.33.67-.66,1-.99.66-.34,1.32-.68,1.99-1.02,1-.67,2-1.34,2.98-2.01,13.9-11.42,26.85-22.74,36.08-37.97h0c2.44-5.96,4.8-11.93,6.99-17.99,2.22-5.62,3.75-11.38,6-16.99,2-2.04,1.94-5.39,2.99-8,1.1-5.65,1.86-11.34,2.99-16.99,1.16-2.08,1.37-4.33,2.98-6,4.67,0,9.33,0,14,0,1.84,2.18,1.15,6.98,0,9.96-2.29,9.53-6.42,17.61-8.98,27-3.68,12.17-7.15,25.5-13.02,37h.01c-2.04,4.69-3.75,9.93-7.02,14h.01c-15.67,20-33.15,36.39-48.99,56-5.12,5.42-8.63,10.59-12.98,16-.34.33-.68.67-1.02,1h0c-6.22,11.61-13.16,23.97-17.02,36-9.95,16.4-12.81,34.92-17.99,53.01-.87,3.74,2.95,5.44,5.02,7.97,8.1,15.47,16.16,30.51,21.98,47.05.34,1,.67,2,1.01,3,2.41,6.84,4.21,13.57,6.01,20.52,1.42,2.83,1.77,6.07,2.99,9.05,1.4,4.73,2.45,9.4,4.01,14.07,3.01,9.01,4.74,17.3,10,25.14.34.67.67,1.34,1.01,2.01.37.31.65.84,1.06,1.02,3.76,9.09,12.4,17.07,15.93,26.14.35.32.63.79,1.02,1.03-.12,1.97,2.08,3.33,2.99,4.99.97,1.44,1.79,2.89,3.08,4.02,3.83,4.6,5.99,10.24,9.99,14.98h-.16c.34.33.67.67,1.01,1,1.92,1.71,2.41,4.29,4.02,6,.33.34.66.67,1,1.01,1.91,1.59,2.07,4.43,4.02,5.99.33.34.66.67.99,1.01,11.11,16.12,22.42,31.34,34.04,47,.33.34.66.67.99,1.01.34.66.68,1.33,1.02,1.99.67,1,1.34,1.99,2.01,2.99,5.04,5.21,9.32,10.8,13,17.01.67,1,1.34,2,2.01,3,.34.66.68,1.33,1.01,1.99,2.51,2.83,2.81,6.51,3.98,10,2.99,5.94-1.78,12.43-4.01,18-2.29,2.37-4.62,4.72-7,7.01-12.15,9.57-29.15,13.42-42.03,20.98,2.06,6.71-.62,16.13,1.05,23.02,5.4,6.32,1.4,12.04,3,19.02-7.05,17.96-43.99,12.17-26.11-16.02,1.15-2.14,2.28-4.48,2.06-6.98,1.92-.12,1.85-4.15,2.97-6.06.33-1,.65-2.02.98-3.02.08-1.47.16-2.95.24-4.43-1.4.82-2.82,1.63-4.22,2.46-3.75,2.4-8.45,4.41-12.06,7.01-10.98,4.96-24.46,2.69-35.11-1-1.79-1.05-3.74-1.05-5.66-1.87-3.05-1.08-6.14-1.55-9-3.01-1-.33-2-.66-3-1-13.85-3.9-28.32-.65-42.32,1.5-10.28,5.28-25,1.47-33.69,7.47-.65-.91-1.3-1.82-1.96-2.72-2.93,4.64-3.69,10.45-2.18,15.75.19,7.18,1.66,15.57.13,23.01-2.23,4.33-12.4,4.6-14.11,4.89-16.63,2.05-11.6-15.77-6.08-24.02.63-5.97,1.81-13.56.05-19.98-12.59,2.1-21.98-.16-33.01-6-3.33-1-6.66-2.01-10-3.01-3.56-1.08-7.23-2.11-10.99-2.06v.07c-8.23-3.26-18.27-3.93-27.03-7-1-.33-2-.67-3-1-3.62-1.54-7.47-2.45-11-4.02-5.86-4.19-12.56-6.33-19.03-9-1.67-.66-3.34-1.32-5-1.98h.04c-2.32-.42-4.59-1.22-6.97-1.01-.23-.38-.69-.67-1.01-1.01-4.65-1.37-9.36-2.49-14.02-3.98h0c-.99-.02-1.98-.04-2.98-.07v.09c-2.79-.66-5.74-1.3-9-3.02-3.82-.89-6.38-1.51-9-4-1-.66-2-1.33-3.01-1.99-5.22-3.88-11.84-7.55-14.97-13-1.63-1.42-2.41-3.53-4-5-.37-.3-.66-.82-1.07-1-3.34-6.36-5.96-14.96.08-20.01,2.87-3.3,5.25-7.1,9.02-8.99.33-.33.67-.66,1-1,2.01-3.03,6.12-4.06,8.96-7.02.98-1.03,2.01-2,3.03-2.99,3.28-2.9,5.42-6.59,8.99-9,.92-1.49,3.47-4.81,2.99-6,1.4-2.64,2.67-5.34,4-8.01,2.84-3.23,4.53-7.25,8-10,.95-.99,2.02-2.06,3-3.01,6.31-6.76,13.61-12.31,19.97-19,1.68-2.18,2.84-4.93,5.01-6.98,1.11-2.45,2.48-3.64,4-6,.33-.34.66-.67.99-1.01.33-.34.66-.68,1-1.02,2.47-3.76,4.67-7.26,7.03-10.96v.07c.33-.33.66-.67.98-1,.33-.33.66-.67.99-1,2.11-3.24,4.64-6.55,6.99-10.01,1.1-2.48,2.93-4.51,4.02-7,1.88-1.73,2.41-4.25,3.99-5.99,1.67-1.28,1.31-3.74,3-5,1.95-4.07,6.42-7.77,7.06-12.98,3.14-.83,2.77-5.01,4.96-7.03,6.78-9.8,10.67-21.97,17.02-32.05,2.28-3.15,2.78-6.18,4.99-9.01,1.98-2.82,3.42-5.96,5-9.01,2.16-4.94,4.95-9.07,8-13.99,1.14-1.45,2.16-3.03,2.03-4.99,1.3.32,1.4-1.15,1.97-2.01,1.04-.76,1.08-1.79,1.02-2.99,1.3.32,1.4-1.16,1.97-2.02,1.87-1.63,2.06-4.42,3.98-6.01,1.09-3.72,3.43-5.19,5.02-8.98,1.47-1.68.83-2.92,2.98-4.02.34-.66.68-1.32,1.02-1.99.33-.34.66-.68.99-1.01.66-.58,1.14-1.15,1-2.02,13.01-7.71,14.89-35.84,3.03-45h0c-1.21-.78-.78-2.29-2.01-3-.23-1.55.25-2.52,1.59-3.33-5.09-4.65-2.82-14.09-6.57-20.67h0c-6.61-11.75-11.06-11.95-21.97-14.49-15.72,4.23-35.76,4.29-53.05,4.55-2.17-1.74-5.49-.64-8-2.08-2.88-.9-5.35-1.65-8-3.01-5.92-3.48-12.16-5.01-16.99-8.99-2.54-1.75-4.8-2.05-7-4-.67-.33-1.34-.66-2-1-1.7-1.59-3.93-1.81-6-3-10.35-2.19-30.48-17.6-10-17.92,6.96,2.32,12.15,8.06,18.06,11.93,14.08,6.74,30.46,12.61,45.99,15l-.07-1Z"/></g></g></svg>